<?xml version="1.0" encoding="UTF-8"?>
<svg id="Layer_2" data-name="Layer 2" xmlns="http://www.w3.org/2000/svg" viewBox="0 0 52.1 9.36">
  <defs>
    <linearGradient id="linear-gradient" x1=".06" y1="4.68" x2="5.5" y2="4.68" gradientUnits="userSpaceOnUse">
      <stop offset="0" stop-color="#f5f5f5"/>
      <stop offset=".58" stop-color="#d1d1d1"/>
      <stop offset="1" stop-color="#f5f5f5"/>
    </linearGradient>
  </defs>
  <g id="Layer_1-2" data-name="Layer 1">
    <g id="BANI_ARUNCATI" data-name="BANI ARUNCATI">
      <g>
        <g>
          <path d="M2.21,9.3l-.06-1.49c-.64-.03-1.18-.26-1.54-.61-.37-.36-.55-.83-.55-1.4l1.39-.06c.09.36.22.58.45.74.23.16.56.24.97.24.37,0,.67-.07.88-.19.2-.12.3-.28.3-.49,0-.15-.04-.27-.11-.36-.07-.09-.18-.18-.31-.24-.13-.07-.29-.12-.47-.16-.18-.04-.37-.08-.57-.12-.27-.05-.55-.11-.83-.18-.28-.07-.54-.17-.77-.32-.23-.14-.43-.34-.57-.58-.15-.24-.22-.56-.22-.94,0-.56.18-1.02.53-1.36.35-.34.85-.54,1.48-.62l-.06-1.03,1.27-.06.06,1.17c.57.04,1.04.27,1.37.63.32.36.5.82.51,1.38l-1.39.06c-.07-.32-.17-.54-.36-.71-.18-.17-.49-.26-.91-.26-.34,0-.61.07-.8.2-.19.13-.28.31-.28.56,0,.15.03.27.1.36.07.1.17.18.29.24.13.07.28.13.45.17.17.05.35.09.55.13.27.06.55.12.84.19.29.07.56.17.8.3.24.13.44.32.6.55.16.23.24.54.24.91,0,.54-.18.98-.52,1.32-.34.34-.86.55-1.55.63l.06,1.41h-1.27Z" fill="url(#linear-gradient)"/>
        </g>
      </g>
    </g>
  </g>
</svg>
