<?xml version="1.0" encoding="UTF-8"?>
<svg id="Layer_2" data-name="Layer 2" xmlns="http://www.w3.org/2000/svg" xmlns:xlink="http://www.w3.org/1999/xlink" viewBox="0 0 35.76 9.74">
  <defs>
    <linearGradient id="linear-gradient" x1=".06" y1="4.87" x2="9.59" y2="4.87" gradientUnits="userSpaceOnUse">
      <stop offset="0" stop-color="#f5f5f5"/>
      <stop offset=".58" stop-color="#d1d1d1"/>
      <stop offset="1" stop-color="#f5f5f5"/>
    </linearGradient>
  </defs>
  <g id="Layer_1-2" data-name="Layer 1">
    <g id="MANELE">
      <g>
        <g>
          <path d="M1.64,9.67c-1.02-.1-1.52-.91-1.57-1.66-.05-.75.35-1.61,1.34-1.84.13-.03.27-.05.41-.05.27,0,.54.06.8.18V1.34c0-.14.17-.34.3-.38C2.92.96,9.05.06,9.05.06c.31,0,.52.19.54.47v6.58c-.06,1.07-.96,1.7-1.79,1.7-.43,0-.83-.15-1.16-.44-.52-.45-.72-1.14-.54-1.81s.72-1.16,1.39-1.28c.1-.02.21-.03.31-.03.27,0,.54.06.81.19v-2.7l-5.06.78.05,4.49c-.06.85-.76,1.57-1.6,1.65-.05,0-.12,0-.18,0s-.13,0-.18,0Z" fill="url(#linear-gradient)"/>
          <path d="M9.08.12c.25,0,.43.17.45.42v6.58c-.06.99-.87,1.64-1.73,1.64-.39,0-.78-.13-1.12-.43-1.08-.93-.57-2.73.82-2.98.1-.02.2-.03.3-.03.3,0,.6.08.88.22v-2.8l-5.14.72v4.55c-.06.8-.74,1.51-1.54,1.58-.05,0-.11,0-.18,0s-.13,0-.17,0c-1.88-.18-2.09-2.94-.22-3.38.13-.03.26-.05.39-.05.3,0,.59.08.87.22V1.34c0-.1.15-.29.25-.32L9.06.13s.02,0,.02,0M9.08,0h-.03S2.92.89,2.92.89c-.17.05-.36.28-.36.45v4.87c-.25-.1-.49-.15-.74-.15-.14,0-.28.02-.42.05C.36,6.35-.05,7.24,0,8.02c.05.78.58,1.62,1.63,1.72.05,0,.12,0,.19,0s.14,0,.19,0c.86-.08,1.59-.83,1.65-1.7V3.59s4.89-.69,4.89-.69v2.46c-.25-.1-.5-.15-.75-.15-.11,0-.21,0-.32.03-.69.12-1.25.63-1.44,1.32-.19.69.02,1.41.56,1.88.34.3.76.46,1.2.46.86,0,1.79-.66,1.85-1.76V.54c-.02-.32-.26-.54-.58-.54h0Z" fill="#ccc"/>
        </g>
      </g>
    </g>
  </g>
</svg>