<?xml version="1.0" encoding="UTF-8"?>
<svg id="Layer_2" data-name="Layer 2" xmlns="http://www.w3.org/2000/svg" xmlns:xlink="http://www.w3.org/1999/xlink" viewBox="0 0 1000 1000">
  <defs>
    <style>
      .cls-1 {
        fill: #fff;
      }

      .cls-2 {
        fill: url(#linear-gradient);
      }

      .cls-3 {
        fill: #e6c787;
      }
    </style>
    <linearGradient id="linear-gradient" x1="474.5" y1="475.04" x2="249.52" y2="250.06" gradientUnits="userSpaceOnUse">
      <stop offset="0" stop-color="#c9aa69"/>
      <stop offset="1" stop-color="#fcdd9d"/>
    </linearGradient>
  </defs>
  <g id="Layer_1-2" data-name="Layer 1">
    <rect class="cls-3" width="1000" height="1000"/>
    <g>
      <g>
        <path d="M815.74,749.55c3.31-6.47,5.39-13.2,6.23-19.94.06-.39.12-.78.17-1.17.06-.39.12-.78.17-1.17.06-.39.12-.78.17-1.17.06-.39.12-.78.17-1.17.06-.39.12-.78.17-1.17.06-.39.12-.78.17-1.17.06-.39.12-.78.17-1.17.06-.39.12-.78.17-1.17.06-.39.12-.78.17-1.17.06-.39.12-.78.17-1.17.06-.39.12-.78.17-1.17.06-.39.12-.78.17-1.17.06-.39.12-.78.17-1.17.06-.39.12-.78.17-1.17.06-.39.12-.78.17-1.17.06-.39.12-.78.17-1.17.06-.39.12-.78.17-1.17.06-.39.12-.78.17-1.17.06-.39.12-.78.17-1.17.06-.39.12-.78.17-1.17.06-.39.12-.78.17-1.17.06-.39.12-.78.17-1.17.06-.39.12-.78.17-1.17.06-.39.12-.78.17-1.17.06-.39.12-.78.17-1.17.06-.39.12-.78.17-1.17.06-.39.12-.78.17-1.17.06-.39.12-.78.17-1.17.06-.39.12-.78.17-1.17.06-.39.12-.78.17-1.17,1.67-11.38-.18-22.82-5.58-33.03l-1.05-1.98-253.65-277.35c.05-.3.09-.62.13-.94.06-.38.12-.77.17-1.17.06-.38.12-.77.17-1.17,1.4-8.37-.33-22.48-14.99-49.23-9.44-17.22-21.4-34.48-28.34-42.63l-5.24-6.15c.03-.17.05-.34.07-.51.06-.39.12-.78.17-1.17.06-.39.12-.78.17-1.17.06-.39.12-.78.17-1.17.06-.39.12-.78.17-1.17.06-.39.12-.78.17-1.17.06-.39.12-.78.17-1.17.06-.39.12-.78.17-1.17.06-.39.12-.78.17-1.17.06-.39.12-.78.17-1.17.07-.39.12-.78.17-1.17.06-.39.12-.78.17-1.17.07-.39.12-.78.17-1.17.06-.39.12-.78.17-1.17.06-.39.12-.78.17-1.17,2.82-16.97-5.18-32.55-17.42-41.35-15.44-11.11-35.42-11.03-50.99-.51l-8.64-5.77c-70.79-47.24-132.01-46.91-181.98,1-21.64,20.75-43.93,43.49-60.35,69.08-12.78,19.92-20.52,39.61-23.18,58.85-.06.39-.12.78-.17,1.17-.06.39-.12.78-.17,1.17-.06.39-.12.78-.17,1.17-.06.39-.12.78-.17,1.17-.06.39-.12.78-.17,1.17-.06.39-.12.78-.17,1.17-.06.39-.12.78-.17,1.17-.06.39-.12.78-.17,1.17-.06.39-.12.78-.17,1.17-.06.39-.12.78-.17,1.17-.06.39-.12.78-.17,1.17-.06.39-.12.78-.17,1.17-.06.39-.12.78-.17,1.17-.06.39-.12.78-.17,1.17-.06.39-.12.78-.17,1.17-.06.39-.12.78-.17,1.17-.06.39-.12.78-.17,1.17-.06.39-.12.78-.17,1.17-.06.39-.12.78-.17,1.17-.06.39-.12.78-.17,1.17-.06.39-.12.78-.17,1.17-.06.39-.12.78-.17,1.17-.06.39-.12.78-.17,1.17-.06.39-.12.78-.17,1.17-.06.39-.12.78-.17,1.17-.06.39-.12.78-.17,1.17-.06.39-.12.78-.17,1.17-.06.39-.12.78-.17,1.17-.06.39-.12.78-.17,1.17-.06.39-.12.78-.17,1.17-1.75,11.74-1.62,23.31.42,34.67,3.15,17.56,13.78,38.06,19.83,48.72.16.29,17.34,29.45,27.78,36.97.85.61,1.69,1.1,2.51,1.53-.01.08-.02.17-.03.25-.06.39-.12.78-.17,1.17-.06.39-.12.78-.17,1.17-.06.39-.12.78-.17,1.17-.06.39-.12.78-.17,1.17-.06.39-.12.78-.17,1.17-.06.39-.12.78-.17,1.17-.06.39-.12.78-.17,1.17-.06.39-.12.78-.17,1.17-.06.39-.12.78-.17,1.17-.06.39-.12.78-.17,1.17-.06.39-.12.78-.17,1.17-.06.39-.12.78-.17,1.17-.06.39-.12.78-.17,1.17-.06.39-.12.78-.17,1.17-.06.39-.12.78-.17,1.17-.06.39-.12.78-.17,1.17-1.04,6.78-.63,13.89,1.38,20.82,2.41,8.3,7.64,15.54,15.14,20.94,15.03,10.82,38.09,12.9,53.54-.65,2.02,4.6,5.89,7.39,7.63,8.64,8.3,5.97,27.87,15.56,46.52,22.8,33.05,12.82,45.17,11.84,52.32,8.12l308.38,210.94,1.33.65c17.53,8.56,38.26,6.82,55.45-4.67,8.91-5.96,47.86-49.69,52.75-59.23Z"/>
        <path class="cls-1" d="M418.55,559.32l143.76-161.43,246.49,270.33c6.46,12.21,5.64,26.38-.57,38.49-3.81,7.43-40.99,49.19-47.94,53.83-12.36,8.27-27.67,10.27-41.12,3.71l-300.63-204.93Z"/>
        <g>
          <g>
            <path class="cls-3" d="M193.43,376.22c-10.56-58.76,39.08-110.46,78.73-148.48,51.84-49.7,109.73-35.64,164.01.58l-198.83,225.18c-4.27,1.22-22.76-27.91-25.72-33.13-7.04-12.4-15.68-30.2-18.18-44.15Z"/>
            <path class="cls-3" d="M309.81,520l203.21-223.64c11.98,14.07,46,65.67,39.45,82.47l-155.45,173.71c-12.25,7.66-86.93-27.02-87.21-32.53Z"/>
          </g>
          <g>
            <g>
              <path class="cls-2" d="M193.43,376.22c-10.56-58.76,39.08-110.46,78.73-148.48,51.84-49.7,109.73-35.64,164.01.58l-198.83,225.18c-4.27,1.22-22.76-27.91-25.72-33.13-7.04-12.4-15.68-30.2-18.18-44.15Z"/>
              <path class="cls-2" d="M193.43,376.22c-10.56-58.76,39.08-110.46,78.73-148.48,51.84-49.7,109.73-35.64,164.01.58l-198.83,225.18c-4.27,1.22-22.76-27.91-25.72-33.13-7.04-12.4-15.68-30.2-18.18-44.15Z"/>
            </g>
            <g>
              <path class="cls-2" d="M309.81,520l203.21-223.64c11.98,14.07,46,65.67,39.45,82.47l-155.45,173.71c-12.25,7.66-86.93-27.02-87.21-32.53Z"/>
              <path class="cls-2" d="M309.81,520l203.21-223.64c11.98,14.07,46,65.67,39.45,82.47l-155.45,173.71c-12.25,7.66-86.93-27.02-87.21-32.53Z"/>
            </g>
          </g>
        </g>
        <path class="cls-1" d="M241.83,501.76c-2.94-10.16-1.29-21.03,5.39-29.24l209.09-234.78c25.89-24.81,65.7,5.5,45.6,36.5l-212.08,238.28c-13.3,15.95-42.55,8.05-48-10.75Z"/>
      </g>
      <path d="M679.08,622.99c.8.74.85,1.97.12,2.77l-19.73,21.46c-.74.8-1.97.85-2.77.12l-13.45-12.37c-20.76,15.19-44.42,16.18-66.62-2.75-.8-.74-.85-1.97-.12-2.77l20.76-22.58c.74-.8,1.97-.85,2.91-.28,13.81,10.04,26.1,13.07,39.79-1.82,10.6-11.53,12.02-21.75,1.45-31.46-25.3-23.26-60.65,58.58-106.77,16.18-17.61-16.19-20.36-37.63-6.65-59.29l-9.93-9.13c-.8-.74-.85-1.97-.12-2.77l19.73-21.46c.74-.8,1.97-.85,2.77-.12l10.25,9.42c18.22-13.39,38.64-14.71,60.35.24.8.74,1,1.81.26,2.61l-20.9,22.74c-.74.8-1.97.85-2.91.28-11.12-8.15-22.46-7.06-32.47,3.83-8.1,8.81-9.84,18.73-.55,27.27,23.86,21.93,60.15-59.63,106.1-17.38,20.49,18.84,21.64,42.35,5.83,65.64l12.65,11.63Z"/>
    </g>
  </g>
</svg>