<?xml version="1.0" encoding="UTF-8"?>
<svg width="24" height="24" viewBox="0 0 24 24" fill="none" xmlns="http://www.w3.org/2000/svg">
  <defs>
    <style>
      .logo-gradient {
        fill: url(#linear-gradient);
      }
      .logo-gold {
        fill: #e4c585;
      }
      .logo-white {
        fill: #fff;
      }
    </style>
    <linearGradient id="linear-gradient" x1="9.36" y1="9.48" x2="3.7" y2="3.83" gradientUnits="userSpaceOnUse">
      <stop offset="0" stop-color="#c7a869"/>
      <stop offset="1" stop-color="#fadb9b"/>
    </linearGradient>
  </defs>
  
  <!-- Main card -->
  <rect x="2" y="4" width="20" height="16" rx="2" ry="2" stroke="#FFD700" stroke-width="2"/>
  <path d="M8 10H16M8 14H16" stroke="#FFD700" stroke-width="2" stroke-linecap="round"/>
  
  <!-- Logo in top-right corner -->
  <g transform="translate(12, 2) scale(0.09)">
    <rect width="20" height="20" rx="1.5" ry="1.5" class="logo-gold"/>
    <path d="M17.94,16.27c.08-.16.14-.33.16-.5,0,0,0-.02,0-.03l-6.38-6.97s0-.02,0-.02c.04-.21,0-.57-.38-1.24-.24-.43-.54-.87-.71-1.07l-.13-.15c.07-.43-.13-.82-.44-1.04-.39-.28-.89-.28-1.28-.01l-.22-.14c-1.78-1.19-3.32-1.18-4.57.03-.54.52-1.1,1.09-1.52,1.74-.32.5-.52,1-.58,1.48.08.44.35.96.5,1.22.7.93.19.22.21.15.7.39,1.17.57.83.32,1.14.3,1.32.2l7.75,5.3.03.02c.44.22.96.17,1.39-.12.22-.15,1.2-1.25,1.33-1.49Z"/>
    <path d="M7.95,11.49l3.61-4.06,6.2,6.8c.16.31.14.66-.01.97-.1.19-1.03,1.24-1.21,1.35-.31.21-.7.26-1.03.09l-7.56-5.15Z" class="logo-white"/>
    <path d="M2.29,6.89c-.27-1.48.98-2.78,1.98-3.73,1.3-1.25,2.76-.9,4.12.01l-5,5.66c-.11.03-.57-.7-.65-.83-.18-.31-.39-.76-.46-1.11Z" class="logo-gradient"/>
    <path d="M5.22,10.5l5.11-5.62c.3.35,1.16,1.65.99,2.07l-3.91,4.37c-.31.19-2.19-.68-2.19-.82Z" class="logo-gradient"/>
  </g>
</svg> 