<?xml version="1.0" encoding="UTF-8"?>
<svg id="Layer_2" data-name="Layer 2" xmlns="http://www.w3.org/2000/svg" viewBox="0 0 1571.98 286.78">
  <defs>
    <style>
      .cls-1 {
        fill: #fff;
      }

      .cls-2 {
        fill: rgba(207, 175, 110, 1);
      }
    </style>
  </defs>
  <g id="Layer_1-2" data-name="Layer 1">
    <g>
      <g>
        <rect class="cls-2" width="286.78" height="286.78"/>
        <path class="cls-1" d="M15.68,275.11h46.12c2.41,0,4.37-1.96,4.37-4.37v-49.01c0-4.44,5.53-6.47,8.41-3.09l46.8,54.94c.83.97,2.05,1.54,3.33,1.54h29.4c2.41,0,4.37-1.96,4.37-4.37v-50.49c0-4.02,4.97-5.91,7.64-2.91l50.08,56.3c.83.93,2.02,1.47,3.27,1.47h51.64c2.41,0,4.37-1.96,4.37-4.37v-57.61c0-2.41-1.96-4.37-4.37-4.37h-16.94c-1.24,0-2.41-.52-3.24-1.44l-54.3-60.12c-.83-.92-2.01-1.44-3.24-1.44h-30.52c-2.41,0-4.37,1.96-4.37,4.37v45.66c0,4-4.93,5.9-7.61,2.93l-46.55-51.52c-.83-.92-2.01-1.44-3.24-1.44h-30.52c-2.41,0-4.37,1.96-4.37,4.37l-.18,54.31c0,2.39-1.92,4.34-4.31,4.37l-46.07-.11c-2.39.03-4.31,1.98-4.31,4.37v57.67c0,2.41,1.96,4.37,4.37,4.37Z"/>
      </g>
      <g>
        <path class="cls-1" d="M404.87,190.16l.89,51.94c0,1.48-1.18,2.66-2.66,2.66h-40.43c-1.48,0-2.66-1.18-2.66-2.66l.89-51.94-.3-94.73c0-1.48,1.18-2.66,2.66-2.66h37.77c1.48,0,2.66,1.18,2.66,2.66l-.89,16.53c10.62-14.76,24.2-22.72,43.68-22.72,21.25,0,36.3,9.15,43.38,28.63,12.98-23.02,28.33-28.63,46.33-28.63,30.69,0,48.4,18.59,48.4,59.02v41.91l.59,51.94c0,1.48-1.18,2.66-2.66,2.66h-39.84c-1.48,0-2.66-1.18-2.66-2.66l.89-51.94v-41.32c0-18.3-7.38-27.15-19.48-27.15s-26.86,16.23-26.86,47.22v21.25l.89,51.94c0,1.48-1.18,2.66-2.66,2.66h-39.84c-1.48,0-2.66-1.18-2.66-2.66l.89-51.94v-41.32c0-18.3-7.08-27.15-19.48-27.15s-26.86,16.23-26.86,47.22v21.25Z"/>
        <path class="cls-1" d="M706.75,244.76c-1.48,0-2.66-1.18-2.66-2.66l.59-15.05c-10.62,12.98-25.67,20.66-44.86,20.66-43.09,0-65.81-34.23-65.81-78.5s25.38-79.38,66.69-79.38c18.89,0,33.64,6.79,43.97,19.18l-.89-13.57c0-1.48,1.18-2.66,2.66-2.66h39.54c1.48,0,2.66,1.18,2.66,2.66l-.89,73.48.89,73.19c0,1.48-1.18,2.66-2.66,2.66h-39.25ZM672.23,218.2c21.54,0,33.05-16.23,33.35-48.4.3-32.46-11.21-50.17-32.46-50.46-22.43-.59-33.94,16.23-33.94,47.51,0,34.23,11.81,51.64,33.05,51.35Z"/>
        <path class="cls-1" d="M765.18,244.76c-1.48,0-2.66-1.18-2.66-2.66l.89-70.24-.3-76.43c0-1.48,1.18-2.66,2.66-2.66h37.48c1.48,0,2.66,1.18,2.66,2.66l-.89,16.53c10.33-13.28,27.74-22.72,48.99-22.72,32.17,0,52.83,21.84,52.83,59.02v31.87l.89,61.97c0,1.48-1.18,2.66-2.66,2.66h-39.54c-1.48,0-2.66-1.18-2.66-2.66l.59-61.97v-31.28c0-16.53-9.74-27.15-23.02-27.15-15.94,0-33.05,14.76-33.05,47.22v11.21l.59,61.97c0,1.48-1.18,2.66-2.66,2.66h-40.13Z"/>
        <path class="cls-1" d="M1065.3,193.41c1.48,0,2.66,1.18,2.36,2.66-3.84,27.74-30.4,52.53-72.89,52.53-50.76,0-78.2-33.35-78.2-79.38,0-48.4,28.92-80.27,77.32-80.27s77.61,33.05,78.5,86.17c0,1.48-1.18,2.66-2.66,2.66h-108.6c1.77,28.63,12.98,41.32,34.23,41.32,14.76,0,25.38-6.79,29.51-23.02.29-1.48,1.77-2.66,3.25-2.66h37.18ZM994.18,118.16c-17.71,0-28.33,10.62-31.87,31.58h62.27c-1.77-16.23-10.92-31.58-30.4-31.58Z"/>
        <path class="cls-1" d="M1086.54,244.76c-1.48,0-2.66-1.18-2.66-2.66l1.18-100.63-1.18-100.63c0-1.48,1.18-2.66,2.66-2.66h38.66c1.48,0,2.66,1.18,2.66,2.66l-1.18,100.63,1.18,100.63c0,1.48-1.18,2.66-2.66,2.66h-38.66Z"/>
        <path class="cls-1" d="M1288.39,193.41c1.48,0,2.66,1.18,2.36,2.66-3.84,27.74-30.4,52.53-72.89,52.53-50.76,0-78.2-33.35-78.2-79.38,0-48.4,28.92-80.27,77.32-80.27s77.61,33.05,78.5,86.17c0,1.48-1.18,2.66-2.66,2.66h-108.6c1.77,28.63,12.98,41.32,34.23,41.32,14.76,0,25.38-6.79,29.51-23.02.29-1.48,1.77-2.66,3.25-2.66h37.18ZM1217.27,118.16c-17.71,0-28.33,10.62-31.87,31.58h62.27c-1.77-16.23-10.92-31.58-30.4-31.58Z"/>
        <path class="cls-1" d="M1303.44,244.76c-1.48,0-2.66-1.18-2.66-2.66v-36.89c0-1.48,1.18-2.66,2.66-2.66h40.73c1.48,0,2.66,1.18,2.66,2.66v36.89c0,1.48-1.18,2.66-2.66,2.66h-40.73Z"/>
        <path class="cls-1" d="M1362.46,78.02c-1.48,0-2.66-1.18-2.66-2.66v-34.53c0-1.48,1.18-2.66,2.66-2.66h39.54c1.48,0,2.66,1.18,2.66,2.66v34.53c0,1.48-1.18,2.66-2.66,2.66h-39.54ZM1362.46,244.76c-1.48,0-2.66-1.18-2.66-2.66l.89-73.19-.89-73.48c0-1.48,1.18-2.66,2.66-2.66h39.84c1.48,0,2.66,1.18,2.66,2.66l-.89,73.48.89,73.19c0,1.48-1.18,2.66-2.66,2.66h-39.84Z"/>
        <path class="cls-1" d="M1494.37,248.59c-49.58,0-78.2-30.99-78.2-79.38s28.63-80.27,78.2-80.27,77.61,30.99,77.61,79.38-28.04,80.27-77.61,80.27ZM1494.37,219.08c21.84,0,32.17-15.05,32.17-49.87s-10.62-50.76-32.46-50.76c-22.43.3-32.76,16.82-32.76,51.05s10.92,49.58,33.05,49.58Z"/>
      </g>
    </g>
  </g>
</svg>