<?xml version="1.0" encoding="UTF-8"?>
<svg id="Layer_2" data-name="Layer 2" xmlns="http://www.w3.org/2000/svg" viewBox="0 0 1376.65 523.4">
  <defs>
    <style>
      .cls-1 {
        fill: #fff;
      }

      .cls-2 {
        fill: #eab111;
      }
    </style>
  </defs>
  <g id="Layer_1-2" data-name="Layer 1">
    <g>
      <g>
        <path d="M1376.33,340.8c-1.32-8.71-4.05-16.81-7.99-24.04-.22-.42-.43-.85-.66-1.27-.22-.42-.43-.85-.66-1.27-.22-.42-.43-.85-.66-1.27-.22-.42-.43-.85-.66-1.27-.22-.42-.43-.86-.66-1.27-.22-.42-.43-.85-.66-1.27-.22-.42-.43-.85-.66-1.27-.22-.42-.43-.86-.66-1.27-.22-.42-.43-.85-.66-1.27-.22-.42-.43-.85-.66-1.27-.22-.42-.43-.85-.66-1.27-.22-.42-.43-.85-.66-1.27-.22-.42-.43-.85-.66-1.27-.22-.42-.43-.86-.66-1.27-.22-.42-.43-.85-.66-1.27-.22-.42-.43-.85-.66-1.27-.22-.42-.43-.85-.66-1.27-.22-.42-.43-.85-.66-1.27-.22-.42-.43-.85-.66-1.27-.22-.42-.43-.86-.66-1.27-.22-.42-.43-.85-.66-1.27-.22-.42-.43-.85-.66-1.27-.22-.42-.43-.85-.66-1.27-.22-.42-.43-.85-.66-1.27-.22-.42-.43-.85-.66-1.27-.22-.42-.43-.86-.66-1.27-.22-.42-.43-.85-.66-1.27-.22-.42-.43-.85-.66-1.27-.22-.42-.43-.85-.66-1.27-.22-.42-.43-.85-.66-1.27-6.42-12.38-16.33-22.34-28.88-28.56l-2.43-1.21L427.49,112.39c-.17-.33-.35-.67-.53-1.01-.21-.42-.42-.84-.66-1.27-.21-.42-.42-.84-.66-1.27-4.55-9.23-16.24-21.9-49.62-37.85-21.49-10.27-45.49-18.79-58.09-21.89l-9.52-2.35c-.1-.19-.2-.37-.3-.55-.21-.43-.44-.85-.66-1.27-.21-.43-.44-.85-.66-1.27-.21-.43-.44-.85-.66-1.27-.21-.43-.44-.85-.66-1.27-.21-.43-.44-.85-.66-1.27-.21-.43-.44-.85-.66-1.27-.21-.43-.44-.85-.66-1.27-.21-.43-.44-.85-.66-1.27-.21-.43-.44-.85-.66-1.27-.21-.43-.44-.85-.66-1.27-.21-.43-.44-.85-.66-1.27-.21-.43-.44-.85-.66-1.27-.21-.43-.44-.85-.66-1.27-.21-.43-.44-.85-.66-1.27-9.24-18.7-28.15-28.37-46.43-28.37-23.06,0-42.68,14.23-50.56,35.62l-12.59.44C86.15,39.69,26.12,83.38,10.87,165.92,4.26,201.68-1.58,239.85.39,276.67c1.53,28.66,7.86,53.52,18.86,74.35.22.42.44.85.66,1.27.22.43.44.85.66,1.27.22.42.44.85.66,1.27.22.43.44.85.66,1.28.22.42.44.85.66,1.27.22.43.44.85.66,1.28.22.42.44.85.66,1.27.22.43.44.85.66,1.27.22.42.44.85.66,1.27.22.43.44.85.66,1.28.22.42.44.85.66,1.27.22.43.44.85.66,1.28.22.42.44.85.66,1.27.22.43.44.85.66,1.27.22.42.44.85.66,1.27.22.43.44.85.66,1.28.22.42.44.85.66,1.27.22.43.44.85.66,1.28.22.42.44.85.66,1.27.22.43.44.85.66,1.27.22.42.44.85.66,1.27.22.43.44.85.66,1.28.22.42.44.85.66,1.27.22.43.44.85.66,1.28.22.43.44.85.66,1.27.22.42.44.85.66,1.27.22.43.44.85.66,1.28.22.42.44.85.66,1.27.22.43.44.85.66,1.27.22.42.44.85.66,1.27,6.59,12.79,14.92,24.09,24.97,33.83,15.54,15.05,40.52,27.71,54.03,33.91.36.17,37.93,16.71,53.53,16.71,1.27,0,2.44-.11,3.56-.28.05.09.1.18.15.27.22.43.43.85.66,1.27.22.43.43.85.66,1.27.22.43.43.85.66,1.27.22.43.43.85.66,1.27.22.43.43.85.66,1.27.22.43.43.85.66,1.27.22.43.43.85.66,1.27.22.43.43.85.66,1.27.22.43.43.85.66,1.27.22.43.43.85.66,1.27.22.43.43.85.66,1.27.22.43.43.85.66,1.27.22.43.43.85.66,1.27.22.43.43.85.66,1.27.22.43.43.85.66,1.27.22.43.43.85.66,1.27,3.77,7.41,9.22,14.11,16.1,19.51,8.25,6.47,18.53,9.88,29.73,9.88,22.46,0,46.63-14.28,52.24-38.56,5.25,3.1,11.04,3.1,13.63,3.1,12.4,0,38.45-4.42,61.94-10.5,41.62-10.79,52.85-20.33,57.25-29.06l896.58,32.27,1.77-.3c23.33-3.99,42.49-20.39,51.27-43.87,4.55-12.18,11.92-82.81,9.98-95.67Z"/>
        <path class="cls-1" d="M406.99,391.82l27.19-260.73,877.72,134.57c15,7.44,24.24,21.98,26.7,38.29,1.51,10.01-5.52,77.45-9.07,86.94-6.32,16.89-19.96,29.71-37.85,32.77l-884.69-31.84Z"/>
        <path class="cls-2" d="M55.7,371.01C3.7,320.65,15.94,234.61,28.05,169.1c15.82-85.64,82.78-112.8,161.86-115.58l-36.25,362.48c-3.34,4.22-42.17-11.36-48.79-14.4-15.71-7.22-36.82-18.63-49.17-30.59Z"/>
        <path class="cls-2" d="M272.09,430.12l41.65-364.07c21.76,5.36,91.79,32.07,97.24,53.24l-30,281.09c-6.63,16.21-104.71,34.97-108.89,29.74Z"/>
        <path class="cls-1" d="M192.26,460.31c-10.09-7.92-16.17-19.79-15.4-32.61L216.4,48.5c7.91-42.76,68.57-41.12,70.74,3.64l-40.02,384.76c-1.8,25.12-36.19,38.06-54.87,23.41Z"/>
      </g>
      <g>
        <path d="M523.08,286.53l-8.7,83.64c-.15,1.46-.91,2.6-1.7,2.57-7.61-.31-11.41-.46-19.01-.77-.79-.03-1.3-1.24-1.15-2.71,3.7-33.49,7.41-66.98,11.11-100.47,3.28-33.53,6.57-67.06,9.85-100.58.15-1.47.9-2.56,1.68-2.44,9.64,1.45,19.27,2.89,28.91,4.34.78.12,1.44,1.39,1.63,2.6,4.63,49.38,9.41,98.75,14.35,148.1,14.03-46.59,28.15-93.14,42.39-139.66.43-1.08,1.33-2.08,2.11-1.97,10.82,1.62,16.22,2.43,27.04,4.06.78.12,1.29,1.32,1.15,2.7-3.44,31.38-6.87,62.75-10.31,94.13-3.02,31.42-6.03,62.83-9.05,94.25-.14,1.38-.89,2.46-1.68,2.43-8.56-.35-12.84-.52-21.39-.86-.79-.03-1.31-1.18-1.17-2.58,2.76-26.78,5.52-53.56,8.28-80.34,1.85-15.37,3.7-30.74,5.55-46.1.43-3.57.65-5.36,1.08-8.94-13.79,44.83-27.48,89.69-41.08,134.58-.43,1.12-1.34,2.23-2.14,2.19-6.47-.26-9.7-.39-16.16-.65-.79-.03-1.47-1.21-1.66-2.37-4.94-49.38-9.71-98.78-14.34-148.19-.58,6.19-.87,9.28-1.45,15.47-1.39,15.86-2.77,31.73-4.16,47.59Z"/>
        <path d="M700.92,380.33c-.79-.03-1.48-1.12-1.66-2.44-1.35-15.01-2.69-30.02-4.01-45.03-13.79-.94-27.58-1.87-41.37-2.81-4.32,15.13-8.62,30.27-12.92,45.4-.46,1.35-1.36,2.4-2.15,2.37-8.68-.35-13.03-.53-21.71-.88-.79-.03-1.15-1.15-.7-2.52,18.59-60.91,37.37-121.77,56.37-182.56.45-1.3,1.34-2.27,2.12-2.15,9.74,1.46,19.48,2.92,29.23,4.38.78.12,1.46,1.29,1.63,2.66,5.87,60.75,11.98,121.47,18.38,182.16.19,1.31-.39,2.33-1.19,2.29-8.81-.36-13.22-.53-22.03-.89ZM692.51,300.36c-2.36-27.1-4.68-54.21-6.96-81.33-7.53,26.25-15.02,52.5-22.5,78.77,9.82.85,19.64,1.71,29.46,2.56Z"/>
        <path d="M757.68,303.44c-2.57,25.52-5.14,51.04-7.72,76.57-.13,1.28-.87,2.27-1.66,2.24-7.92-.32-11.88-.48-19.81-.8-.79-.03-1.32-1.09-1.19-2.39,3.18-29.39,6.37-58.77,9.55-88.16,2.76-29.43,5.53-58.85,8.29-88.28.13-1.29.86-2.23,1.64-2.12,10.44,1.57,15.66,2.35,26.1,3.92.78.12,1.64,1.02,1.83,2.34,10.24,42.82,20.81,85.55,31.77,128.19.98-12.97,1.96-25.94,2.94-38.91,2.75-27.54,5.51-55.09,8.26-82.63.12-1.24.85-2.13,1.63-2.02,7.82,1.17,11.72,1.76,19.54,2.93.78.12,1.31,1.19,1.19,2.41-2.97,27.71-5.94,55.41-8.91,83.12-2.55,27.75-5.1,55.49-7.65,83.24-.12,1.22-.85,2.17-1.64,2.14-10.97-.44-16.45-.66-27.41-1.11-.79-.03-1.67-.82-1.86-2.07-10.67-42.31-20.96-84.72-30.93-127.2-.22,2.77-.32,4.15-.54,6.91-1.14,13.9-2.27,27.8-3.41,41.69Z"/>
        <path d="M833.56,385.69c-.79-.03-1.33-1.03-1.21-2.24,3-27.55,6.01-55.09,9.01-82.64,2.48-27.6,4.96-55.19,7.44-82.79.12-1.21.84-2.09,1.62-1.97,24.59,3.69,49.18,7.38,73.78,11.06.78.12,1.32,1.13,1.2,2.29-.86,8.76-1.29,13.14-2.15,21.91-.11,1.15-.83,1.99-1.61,1.89-17.02-2.25-34.05-4.5-51.07-6.75-1.48,12.79-2.96,25.59-4.43,38.38,15.77,1.68,31.54,3.37,47.3,5.05.79.08,1.32,1.08,1.21,2.23-.86,8.79-1.29,13.19-2.16,21.98-.11,1.16-.83,2.03-1.62,1.96-15.8-1.41-31.61-2.81-47.41-4.22-1.37,15.94-2.73,31.88-4.1,47.81,17.6,1.02,35.21,2.04,52.81,3.06.79.05,1.33,1,1.22,2.16-.86,8.76-1.29,13.13-2.14,21.89-.11,1.15-.84,2.05-1.63,2.02-25.36-1.02-50.71-2.05-76.07-3.07Z"/>
        <path d="M918.81,389.13c-.79-.03-1.34-.98-1.23-2.12,2.81-26.06,5.63-52.11,8.44-78.17,2.29-26.11,4.58-52.21,6.87-78.32.11-1.15.83-1.97,1.61-1.85,8.57,1.28,12.85,1.93,21.41,3.21.78.12,1.32,1.11,1.21,2.24-2.64,24.96-5.28,49.91-7.92,74.87-1.59,18.53-3.18,37.05-4.78,55.58,14.97.87,29.94,1.73,44.91,2.6.79.05,1.34.96,1.23,2.05-.8,8.3-1.2,12.46-2,20.76-.11,1.09-.82,1.94-1.62,1.91-22.71-.92-45.43-1.83-68.14-2.75Z"/>
        <path d="M994.4,392.18c-.79-.03-1.34-.93-1.24-2.02,2.65-24.74,5.29-49.47,7.94-74.21,2.12-24.79,4.24-49.57,6.37-74.36.1-1.09.81-1.87,1.6-1.75,24.59,3.69,49.18,7.38,73.77,11.06.78.12,1.33,1.03,1.23,2.06-.74,7.82-1.11,11.74-1.85,19.56-.1,1.03-.8,1.77-1.58,1.67-17.02-2.25-34.04-4.5-51.07-6.75-1.31,11.47-2.62,22.93-3.93,34.4l47.3,5.05c.79.08,1.34.98,1.24,2.01-.74,7.85-1.11,11.78-1.86,19.63-.1,1.03-.81,1.8-1.59,1.73-15.8-1.41-31.6-2.81-47.41-4.22-1.16,14.29-2.31,28.58-3.47,42.87,17.6,1.02,35.21,2.04,52.81,3.05.79.05,1.35.91,1.25,1.93-.74,7.82-1.11,11.73-1.85,19.54-.1,1.03-.81,1.83-1.6,1.79-25.35-1.02-50.71-2.05-76.06-3.07Z"/>
        <path d="M1077.9,395.55c-.79-.03-1.35-.88-1.25-1.9.97-10.25,1.45-15.37,2.42-25.62.1-1.03.81-1.81,1.6-1.76,8.72.55,13.08.82,21.81,1.36.79.05,1.35.89,1.25,1.9-.94,10.06-1.41,15.09-2.36,25.15-.09,1.01-.8,1.79-1.6,1.75-8.75-.35-13.12-.53-21.87-.88Z"/>
        <path d="M1110.54,396.86c-.79-.03-1.35-.86-1.26-1.86,2.39-22.71,4.78-45.42,7.17-68.12,1.86-22.76,3.73-45.52,5.59-68.27.09-1,.79-1.71,1.57-1.59,8.5,1.28,12.75,1.91,21.26,3.19.78.12,1.33,1,1.24,1.98-2.33,22.28-4.67,44.56-7,66.84-1.81,22.33-3.62,44.66-5.43,66.99-.09.98-.8,1.74-1.59,1.71-8.62-.35-12.93-.52-21.55-.87Z"/>
        <path d="M1196.49,403.14c-37.46-1.78-52.41-40.32-49.38-72.96,3.05-32.94,24-68.62,61.8-63.21,35.49,5.09,52.42,40.86,49.47,73.72-2.91,32.37-26.75,64.11-61.88,62.45ZM1198.63,381.33c23.44,1.26,33.28-23.55,35.03-42.97,1.75-19.51-3.31-46.33-26.75-49.56-24.52-3.38-33.34,24.6-35.1,43.72-1.75,19.11,2.5,47.5,26.82,48.81Z"/>
      </g>
    </g>
  </g>
</svg>