<?xml version="1.0" encoding="UTF-8"?>
<svg id="Layer_2" data-name="Layer 2" xmlns="http://www.w3.org/2000/svg" viewBox="0 0 1571.98 286.78">
  <defs>
    <style>
      .cls-1 {
        fill: #fff;
      }

      .cls-2 {
        fill: #cfb96e;
      }

      .cls-3 {
        fill: #eab111;
      }
    </style>
  </defs>
  <g id="Layer_1-2" data-name="Layer 1">
    <g>
      <rect class="cls-2" x="0" y="0" width="286.78" height="286.78" rx="28.65" ry="28.65"/>
      <g>
        <path class="cls-1" d="M404.87,190.16l.89,51.94c0,1.48-1.18,2.66-2.66,2.66h-40.43c-1.48,0-2.66-1.18-2.66-2.66l.89-51.94-.3-94.73c0-1.48,1.18-2.66,2.66-2.66h37.77c1.48,0,2.66,1.18,2.66,2.66l-.89,16.53c10.62-14.76,24.2-22.72,43.68-22.72,21.25,0,36.3,9.15,43.38,28.63,12.98-23.02,28.33-28.63,46.33-28.63,30.69,0,48.4,18.59,48.4,59.02v41.91l.59,51.94c0,1.48-1.18,2.66-2.66,2.66h-39.84c-1.48,0-2.66-1.18-2.66-2.66l.89-51.94v-41.32c0-18.3-7.38-27.15-19.48-27.15s-26.86,16.23-26.86,47.22v21.25l.89,51.94c0,1.48-1.18,2.66-2.66,2.66h-39.84c-1.48,0-2.66-1.18-2.66-2.66l.89-51.94v-41.32c0-18.3-7.08-27.15-19.48-27.15s-26.86,16.23-26.86,47.22v21.25Z"/>
        <path class="cls-1" d="M706.75,244.76c-1.48,0-2.66-1.18-2.66-2.66l.59-15.05c-10.62,12.98-25.67,20.66-44.86,20.66-43.09,0-65.81-34.23-65.81-78.5s25.38-79.38,66.69-79.38c18.89,0,33.64,6.79,43.97,19.18l-.89-13.57c0-1.48,1.18-2.66,2.66-2.66h39.54c1.48,0,2.66,1.18,2.66,2.66l-.89,73.48.89,73.19c0,1.48-1.18,2.66-2.66,2.66h-39.25ZM672.23,218.2c21.54,0,33.05-16.23,33.35-48.4.3-32.46-11.21-50.17-32.46-50.46-22.43-.59-33.94,16.23-33.94,47.51,0,34.23,11.81,51.64,33.05,51.35Z"/>
        <path class="cls-1" d="M765.18,244.76c-1.48,0-2.66-1.18-2.66-2.66l.89-70.24-.3-76.43c0-1.48,1.18-2.66,2.66-2.66h37.48c1.48,0,2.66,1.18,2.66,2.66l-.89,16.53c10.33-13.28,27.74-22.72,48.99-22.72,32.17,0,52.83,21.84,52.83,59.02v31.87l.89,61.97c0,1.48-1.18,2.66-2.66,2.66h-39.54c-1.48,0-2.66-1.18-2.66-2.66l.59-61.97v-31.28c0-16.53-9.74-27.15-23.02-27.15-15.94,0-33.05,14.76-33.05,47.22v11.21l.59,61.97c0,1.48-1.18,2.66-2.66,2.66h-40.13Z"/>
        <path class="cls-1" d="M1065.3,193.41c1.48,0,2.66,1.18,2.36,2.66-3.84,27.74-30.4,52.53-72.89,52.53-50.76,0-78.2-33.35-78.2-79.38,0-48.4,28.92-80.27,77.32-80.27s77.61,33.05,78.5,86.17c0,1.48-1.18,2.66-2.66,2.66h-108.6c1.77,28.63,12.98,41.32,34.23,41.32,14.76,0,25.38-6.79,29.51-23.02.29-1.48,1.77-2.66,3.25-2.66h37.18ZM994.18,118.16c-17.71,0-28.33,10.62-31.87,31.58h62.27c-1.77-16.23-10.92-31.58-30.4-31.58Z"/>
        <path class="cls-1" d="M1086.54,244.76c-1.48,0-2.66-1.18-2.66-2.66l1.18-100.63-1.18-100.63c0-1.48,1.18-2.66,2.66-2.66h38.66c1.48,0,2.66,1.18,2.66,2.66l-1.18,100.63,1.18,100.63c0,1.48-1.18,2.66-2.66,2.66h-38.66Z"/>
        <path class="cls-1" d="M1288.39,193.41c1.48,0,2.66,1.18,2.36,2.66-3.84,27.74-30.4,52.53-72.89,52.53-50.76,0-78.2-33.35-78.2-79.38,0-48.4,28.92-80.27,77.32-80.27s77.61,33.05,78.5,86.17c0,1.48-1.18,2.66-2.66,2.66h-108.6c1.77,28.63,12.98,41.32,34.23,41.32,14.76,0,25.38-6.79,29.51-23.02.29-1.48,1.77-2.66,3.25-2.66h37.18ZM1217.27,118.16c-17.71,0-28.33,10.62-31.87,31.58h62.27c-1.77-16.23-10.92-31.58-30.4-31.58Z"/>
        <path class="cls-1" d="M1303.44,244.76c-1.48,0-2.66-1.18-2.66-2.66v-36.89c0-1.48,1.18-2.66,2.66-2.66h40.73c1.48,0,2.66,1.18,2.66,2.66v36.89c0,1.48-1.18,2.66-2.66,2.66h-40.73Z"/>
        <path class="cls-1" d="M1362.46,78.02c-1.48,0-2.66-1.18-2.66-2.66v-34.53c0-1.48,1.18-2.66,2.66-2.66h39.54c1.48,0,2.66,1.18,2.66,2.66v34.53c0,1.48-1.18,2.66-2.66,2.66h-39.54ZM1362.46,244.76c-1.48,0-2.66-1.18-2.66-2.66l.89-73.19-.89-73.48c0-1.48,1.18-2.66,2.66-2.66h39.84c1.48,0,2.66,1.18,2.66,2.66l-.89,73.48.89,73.19c0,1.48-1.18,2.66-2.66,2.66h-39.84Z"/>
        <path class="cls-1" d="M1494.37,248.59c-49.58,0-78.2-30.99-78.2-79.38s28.63-80.27,78.2-80.27,77.61,30.99,77.61,79.38-28.04,80.27-77.61,80.27ZM1494.37,219.08c21.84,0,32.17-15.05,32.17-49.87s-10.62-50.76-32.46-50.76c-22.43.3-32.76,16.82-32.76,51.05s10.92,49.58,33.05,49.58Z"/>
      </g>
      <g>
        <path d="M257.19,233.33c1.19-2.33,1.94-4.76,2.25-7.19.02-.14.04-.28.06-.42.02-.14.04-.28.06-.42.02-.14.04-.28.06-.42.02-.14.04-.28.06-.42.02-.14.04-.28.06-.42.02-.14.04-.28.06-.42.02-.14.04-.28.06-.42.02-.14.04-.28.06-.42.02-.14.04-.28.06-.42.02-.14.04-.28.06-.42.02-.14.04-.28.06-.42.02-.14.04-.28.06-.42.02-.14.04-.28.06-.42.02-.14.04-.28.06-.42.02-.14.04-.28.06-.42.02-.14.04-.28.06-.42.02-.14.04-.28.06-.42.02-.14.04-.28.06-.42.02-.14.04-.28.06-.42.02-.14.04-.28.06-.42.02-.14.04-.28.06-.42.02-.14.04-.28.06-.42.02-.14.04-.28.06-.42.02-.14.04-.28.06-.42.02-.14.04-.28.06-.42.02-.14.04-.28.06-.42.02-.14.04-.28.06-.42.02-.14.04-.28.06-.42.02-.14.04-.28.06-.42.02-.14.04-.28.06-.42.6-4.1-.06-8.22-2.01-11.9l-.38-.71-91.42-99.97c.02-.11.03-.22.05-.34.02-.14.04-.28.06-.42.02-.14.04-.28.06-.42.5-3.02-.12-8.1-5.4-17.74-3.4-6.21-7.71-12.43-10.22-15.36l-1.89-2.22c0-.06.02-.12.02-.19.02-.14.04-.28.06-.42.02-.14.04-.28.06-.42.02-.14.04-.28.06-.42.02-.14.04-.28.06-.42.02-.14.04-.28.06-.42.02-.14.04-.28.06-.42.02-.14.04-.28.06-.42.02-.14.04-.28.06-.42.02-.14.04-.28.06-.42.02-.14.04-.28.06-.42.02-.14.04-.28.06-.42.02-.14.04-.28.06-.42.02-.14.04-.28.06-.42.02-.14.04-.28.06-.42,1.01-6.12-1.87-11.73-6.28-14.9-5.56-4-12.77-3.98-18.38-.18l-3.11-2.08c-25.51-17.03-47.58-16.91-65.59.36-7.8,7.48-15.84,15.67-21.75,24.9-4.6,7.18-7.4,14.28-8.36,21.21-.02.14-.04.28-.06.42-.02.14-.04.28-.06.42-.02.14-.04.28-.06.42-.02.14-.04.28-.06.42-.02.14-.04.28-.06.42-.02.14-.04.28-.06.42-.02.14-.04.28-.06.42-.02.14-.04.28-.06.42-.02.14-.04.28-.06.42-.02.14-.04.28-.06.42-.02.14-.04.28-.06.42-.02.14-.04.28-.06.42-.02.14-.04.28-.06.42-.02.14-.04.28-.06.42-.02.14-.04.28-.06.42-.02.14-.04.28-.06.42-.02.14-.04.28-.06.42-.02.14-.04.28-.06.42-.02.14-.04.28-.06.42-.02.14-.04.28-.06.42-.02.14-.04.28-.06.42-.02.14-.04.28-.06.42-.02.14-.04.28-.06.42-.02.14-.04.28-.06.42-.02.14-.04.28-.06.42-.02.14-.04.28-.06.42-.02.14-.04.28-.06.42-.02.14-.04.28-.06.42-.02.14-.04.28-.06.42-.02.14-.04.28-.06.42-.63,4.23-.58,8.4.15,12.49,1.14,6.33,4.97,13.72,7.15,17.56.06.1,6.25,10.61,10.01,13.32.31.22.61.4.91.55,0,.03,0,.06,0,.09-.02.14-.04.28-.06.42-.02.14-.04.28-.06.42-.02.14-.04.28-.06.42-.02.14-.04.28-.06.42-.02.14-.04.28-.06.42-.02.14-.04.28-.06.42-.02.14-.04.28-.06.42-.02.14-.04.28-.06.42-.02.14-.04.28-.06.42-.02.14-.04.28-.06.42-.02.14-.04.28-.06.42-.02.14-.04.28-.06.42-.02.14-.04.28-.06.42-.02.14-.04.28-.06.42-.02.14-.04.28-.06.42-.02.14-.04.28-.06.42-.38,2.44-.23,5.01.5,7.5.87,2.99,2.75,5.6,5.46,7.55,5.42,3.9,13.73,4.65,19.3-.23.73,1.66,2.12,2.66,2.75,3.11,2.99,2.15,10.04,5.61,16.77,8.22,11.91,4.62,16.28,4.27,18.86,2.93l111.15,76.03.48.23c6.32,3.09,13.79,2.46,19.99-1.68,3.21-2.15,17.25-17.91,19.01-21.35Z"/>
        <path class="cls-1" d="M114.03,164.77l51.82-58.18,88.84,97.43c2.33,4.4,2.03,9.51-.2,13.87-1.37,2.68-14.77,17.73-17.28,19.4-4.46,2.98-9.97,3.7-14.82,1.34l-108.35-73.86Z"/>
        <path class="cls-3" d="M32.89,98.78c-3.81-21.18,14.08-39.81,28.38-53.51,18.68-17.91,39.55-12.85,59.11.21L48.72,126.63c-1.54.44-8.2-10.06-9.27-11.94-2.54-4.47-5.65-10.89-6.55-15.91Z"/>
        <path class="cls-3" d="M74.84,150.6l73.24-80.61c4.32,5.07,16.58,23.67,14.22,29.72l-56.03,62.61c-4.41,2.76-31.33-9.74-31.43-11.73Z"/>
        <path class="cls-1" d="M50.34,144.02c-1.06-3.66-.47-7.58,1.94-10.54L127.64,48.86c9.33-8.94,23.68,1.98,16.44,13.16l-76.44,85.88c-4.79,5.75-15.34,2.9-17.3-3.88Z"/>
      </g>
      <path d="M207.93,187.72c.29.27.31.71.04,1l-7.11,7.73c-.27.29-.71.31-1,.04l-4.85-4.46c-7.48,5.47-16.01,5.83-24.01-.99-.29-.27-.31-.71-.04-1l7.48-8.14c.27-.29.71-.31,1.05-.1,4.98,3.62,9.41,4.71,14.34-.66,3.82-4.16,4.33-7.84.52-11.34-9.12-8.38-21.86,21.11-38.48,5.83-6.35-5.84-7.34-13.56-2.4-21.37l-3.58-3.29c-.29-.27-.31-.71-.04-1l7.11-7.73c.27-.29.71-.31,1-.04l3.69,3.4c6.57-4.83,13.93-5.3,21.75.09.29.27.36.65.09.94l-7.53,8.19c-.27.29-.71.31-1.05.1-4.01-2.94-8.1-2.55-11.7,1.38-2.92,3.17-3.54,6.75-.2,9.83,8.6,7.91,21.68-21.49,38.24-6.27,7.39,6.79,7.8,15.26,2.1,23.66l4.56,4.19Z"/>
    </g>
  </g>
</svg>