<?xml version="1.0" encoding="UTF-8"?>
<svg id="Layer_2" data-name="Layer 2" xmlns="http://www.w3.org/2000/svg" xmlns:xlink="http://www.w3.org/1999/xlink" viewBox="0 0 2096.89 382.54">
  <defs>
    <style>
      .cls-1 {
        fill: #fff;
      }

      .cls-2 {
        fill: url(#linear-gradient);
      }

      .cls-3 {
        fill: #e6c787;
      }
    </style>
    <linearGradient id="linear-gradient" x1="210.31" y1="170.8" x2="102.15" y2="62.64" gradientTransform="translate(-31.3 8.46)" gradientUnits="userSpaceOnUse">
      <stop offset="0" stop-color="#c9aa69"/>
      <stop offset="1" stop-color="#fcdd9d"/>
    </linearGradient>
  </defs>
  <g id="Layer_1-2" data-name="Layer 1">
    <g>
      <rect class="cls-3" y="0" width="382.54" height="382.54" rx="28.65" ry="28.65"/>
      <g>
        <path class="cls-1" d="M540.06,253.66l1.18,69.28c0,1.97-1.58,3.54-3.54,3.54h-53.93c-1.97,0-3.54-1.58-3.54-3.54l1.18-69.28-.39-126.36c0-1.97,1.58-3.54,3.54-3.54h50.39c1.97,0,3.54,1.57,3.54,3.54l-1.18,22.04c14.17-19.68,32.28-30.31,58.26-30.31,28.34,0,48.42,12.2,57.87,38.18,17.32-30.71,37.79-38.18,61.8-38.18,40.94,0,64.56,24.8,64.56,78.73v55.9l.79,69.28c0,1.97-1.58,3.54-3.54,3.54h-53.14c-1.97,0-3.54-1.58-3.54-3.54l1.18-69.28v-55.11c0-24.41-9.84-36.22-25.98-36.22s-35.82,21.65-35.82,62.98v28.34l1.18,69.28c0,1.97-1.57,3.54-3.54,3.54h-53.14c-1.97,0-3.54-1.58-3.54-3.54l1.18-69.28v-55.11c0-24.41-9.45-36.22-25.98-36.22s-35.82,21.65-35.82,62.98v28.34Z"/>
        <path class="cls-1" d="M942.75,326.49c-1.97,0-3.54-1.58-3.54-3.54l.79-20.08c-14.17,17.32-34.25,27.56-59.84,27.56-57.47,0-87.78-45.66-87.78-104.71s33.85-105.89,88.96-105.89c25.19,0,44.88,9.05,58.65,25.59l-1.18-18.11c0-1.97,1.58-3.54,3.54-3.54h52.75c1.97,0,3.54,1.57,3.54,3.54l-1.18,98.02,1.18,97.63c0,1.97-1.58,3.54-3.54,3.54h-52.36ZM896.69,291.06c28.74,0,44.09-21.65,44.48-64.56.39-43.3-14.96-66.92-43.3-67.31-29.92-.79-45.27,21.65-45.27,63.38,0,45.66,15.75,68.89,44.09,68.5Z"/>
        <path class="cls-1" d="M1020.69,326.49c-1.97,0-3.54-1.58-3.54-3.54l1.18-93.69-.39-101.96c0-1.97,1.58-3.54,3.54-3.54h49.99c1.97,0,3.54,1.57,3.54,3.54l-1.18,22.04c13.78-17.71,37-30.31,65.35-30.31,42.91,0,70.46,29.13,70.46,78.73v42.51l1.18,82.67c0,1.97-1.58,3.54-3.54,3.54h-52.75c-1.97,0-3.54-1.58-3.54-3.54l.79-82.67v-41.73c0-22.04-12.99-36.22-30.7-36.22-21.26,0-44.09,19.68-44.09,62.98v14.96l.79,82.67c0,1.97-1.58,3.54-3.54,3.54h-53.54Z"/>
        <path class="cls-1" d="M1421.02,257.99c1.97,0,3.54,1.57,3.15,3.54-5.12,37-40.55,70.07-97.23,70.07-67.71,0-104.32-44.48-104.32-105.89,0-64.56,38.58-107.07,103.14-107.07s103.53,44.09,104.71,114.95c0,1.97-1.57,3.54-3.54,3.54h-144.86c2.36,38.18,17.32,55.11,45.66,55.11,19.68,0,33.85-9.05,39.37-30.7.39-1.97,2.36-3.54,4.33-3.54h49.6ZM1326.15,157.61c-23.62,0-37.79,14.17-42.51,42.12h83.06c-2.36-21.65-14.56-42.12-40.55-42.12Z"/>
        <path class="cls-1" d="M1449.36,326.49c-1.97,0-3.54-1.58-3.54-3.54l1.58-134.23-1.58-134.24c0-1.97,1.58-3.54,3.54-3.54h51.57c1.97,0,3.54,1.57,3.54,3.54l-1.57,134.24,1.57,134.23c0,1.97-1.57,3.54-3.54,3.54h-51.57Z"/>
        <path class="cls-1" d="M1718.61,257.99c1.97,0,3.54,1.57,3.15,3.54-5.12,37-40.55,70.07-97.23,70.07-67.71,0-104.32-44.48-104.32-105.89,0-64.56,38.58-107.07,103.14-107.07s103.53,44.09,104.71,114.95c0,1.97-1.57,3.54-3.54,3.54h-144.86c2.36,38.18,17.32,55.11,45.66,55.11,19.68,0,33.85-9.05,39.37-30.7.39-1.97,2.36-3.54,4.33-3.54h49.6ZM1623.74,157.61c-23.62,0-37.79,14.17-42.51,42.12h83.06c-2.36-21.65-14.56-42.12-40.55-42.12Z"/>
        <path class="cls-1" d="M1738.68,326.49c-1.97,0-3.54-1.58-3.54-3.54v-49.21c0-1.97,1.58-3.54,3.54-3.54h54.32c1.97,0,3.54,1.58,3.54,3.54v49.21c0,1.97-1.58,3.54-3.54,3.54h-54.32Z"/>
        <path class="cls-1" d="M1817.41,104.07c-1.97,0-3.54-1.57-3.54-3.54v-46.06c0-1.97,1.57-3.54,3.54-3.54h52.75c1.97,0,3.54,1.57,3.54,3.54v46.06c0,1.97-1.57,3.54-3.54,3.54h-52.75ZM1817.41,326.49c-1.97,0-3.54-1.58-3.54-3.54l1.18-97.63-1.18-98.02c0-1.97,1.57-3.54,3.54-3.54h53.14c1.97,0,3.54,1.57,3.54,3.54l-1.18,98.02,1.18,97.63c0,1.97-1.57,3.54-3.54,3.54h-53.14Z"/>
        <path class="cls-1" d="M1993.36,331.61c-66.13,0-104.32-41.33-104.32-105.89s38.18-107.07,104.32-107.07,103.53,41.33,103.53,105.89-37.4,107.07-103.53,107.07ZM1993.36,292.24c29.13,0,42.91-20.08,42.91-66.53s-14.17-67.71-43.3-67.71c-29.92.39-43.7,22.44-43.7,68.1s14.57,66.13,44.09,66.13Z"/>
      </g>
      <g>
        <g>
          <path d="M343.07,311.25c1.59-3.11,2.59-6.35,2.99-9.59.03-.19.06-.38.08-.56.03-.19.06-.37.08-.56.03-.19.06-.37.08-.56.03-.19.06-.37.08-.56.03-.19.06-.38.08-.56.03-.19.06-.37.08-.56.03-.19.06-.37.08-.56.03-.19.06-.38.08-.56.03-.19.06-.37.08-.56.03-.19.06-.38.08-.56.03-.19.06-.37.08-.56.03-.19.06-.38.08-.56.03-.19.06-.37.08-.56.03-.19.06-.38.08-.56.03-.19.06-.37.08-.56.03-.19.06-.38.08-.56.03-.19.06-.37.08-.56.03-.19.06-.37.08-.56.03-.19.06-.37.08-.56.03-.19.06-.38.08-.56.03-.19.06-.37.08-.56.03-.19.06-.38.08-.56.03-.19.06-.37.08-.56.03-.19.06-.37.08-.56.03-.19.06-.37.08-.56.03-.19.06-.38.08-.56.03-.19.06-.37.08-.56.03-.19.06-.38.08-.56.03-.19.06-.37.08-.56.03-.19.06-.37.08-.56.8-5.47-.08-10.97-2.68-15.88l-.5-.95-121.95-133.35c.02-.15.04-.3.06-.45.03-.18.06-.37.08-.56.03-.18.06-.37.08-.56.67-4.02-.16-10.81-7.21-23.67-4.54-8.28-10.29-16.58-13.63-20.5l-2.52-2.96c.01-.08.02-.16.03-.25.03-.19.06-.37.08-.56.03-.19.06-.38.08-.56.03-.19.06-.37.08-.56.03-.19.06-.38.08-.56.03-.19.06-.37.08-.56.03-.19.06-.38.08-.56.03-.19.06-.37.08-.56.03-.19.06-.38.08-.56.03-.19.06-.37.08-.56.03-.19.06-.38.08-.56.03-.19.06-.37.08-.56.03-.19.06-.38.08-.56.03-.19.06-.37.08-.56.03-.19.06-.38.08-.56,1.35-8.16-2.49-15.65-8.37-19.88-7.42-5.34-17.03-5.3-24.52-.24l-4.15-2.77c-34.03-22.71-63.47-22.55-87.49.48-10.41,9.98-21.12,20.91-29.01,33.21-6.14,9.58-9.86,19.04-11.15,28.29-.03.19-.06.37-.08.56-.03.19-.06.38-.08.56-.03.19-.06.37-.08.56-.03.19-.06.38-.08.56-.03.19-.06.37-.08.56-.03.19-.06.38-.08.56-.03.19-.06.37-.08.56-.03.19-.06.38-.08.56-.03.19-.06.37-.08.56-.03.19-.06.38-.08.56-.03.19-.06.37-.08.56-.03.19-.06.38-.08.56-.03.19-.06.37-.08.56-.03.19-.06.38-.08.56-.03.19-.06.37-.08.56-.03.19-.06.38-.08.56-.03.19-.06.37-.08.56-.03.19-.06.38-.08.56-.03.19-.06.37-.08.56-.03.19-.06.38-.08.56-.03.19-.06.37-.08.56-.03.19-.06.38-.08.56-.03.19-.06.37-.08.56-.03.19-.06.38-.08.56-.03.19-.06.38-.08.56-.03.19-.06.37-.08.56-.03.19-.06.38-.08.56-.03.19-.06.37-.08.56-.03.19-.06.38-.08.56-.03.19-.06.37-.08.56-.84,5.64-.78,11.21.2,16.67,1.52,8.44,6.62,18.3,9.54,23.42.08.14,8.34,14.16,13.36,17.77.41.29.81.53,1.21.73,0,.04,0,.08-.01.12-.03.19-.06.37-.08.56-.03.19-.06.37-.08.56-.03.19-.06.37-.08.56-.03.19-.06.37-.08.56-.03.19-.06.37-.08.56-.03.19-.06.37-.08.56-.03.19-.06.37-.08.56-.03.19-.06.37-.08.56-.03.19-.06.37-.08.56-.03.19-.06.37-.08.56-.03.19-.06.37-.08.56-.03.19-.06.37-.08.56-.03.19-.06.37-.08.56-.03.19-.06.37-.08.56-.03.19-.06.37-.08.56-.03.19-.06.37-.08.56-.5,3.26-.3,6.68.66,10.01,1.16,3.99,3.67,7.47,7.28,10.07,7.23,5.2,18.31,6.2,25.74-.31.97,2.21,2.83,3.55,3.67,4.15,3.99,2.87,13.4,7.48,22.36,10.96,15.89,6.16,21.72,5.69,25.15,3.9l148.26,101.41.64.31c8.43,4.12,18.4,3.28,26.66-2.25,4.29-2.87,23.01-23.89,25.36-28.48Z"/>
          <path class="cls-1" d="M152.11,219.79l69.12-77.61,118.51,129.97c3.1,5.87,2.71,12.69-.27,18.51-1.83,3.57-19.71,23.65-23.05,25.88-5.94,3.97-13.3,4.94-19.77,1.78l-144.53-98.52Z"/>
          <g>
            <g>
              <path class="cls-3" d="M43.87,131.76c-5.08-28.25,18.79-53.1,37.85-71.38,24.92-23.9,52.76-17.13,78.85.28l-95.59,108.26c-2.05.59-10.94-13.42-12.37-15.93-3.39-5.96-7.54-14.52-8.74-21.23Z"/>
              <path class="cls-3" d="M99.83,200.88l97.7-107.52c5.76,6.76,22.12,31.57,18.97,39.65l-74.74,83.51c-5.89,3.68-41.79-12.99-41.93-15.64Z"/>
            </g>
            <g>
              <g>
                <path class="cls-2" d="M43.87,131.76c-5.08-28.25,18.79-53.1,37.85-71.38,24.92-23.9,52.76-17.13,78.85.28l-95.59,108.26c-2.05.59-10.94-13.42-12.37-15.93-3.39-5.96-7.54-14.52-8.74-21.23Z"/>
                <path class="cls-2" d="M43.87,131.76c-5.08-28.25,18.79-53.1,37.85-71.38,24.92-23.9,52.76-17.13,78.85.28l-95.59,108.26c-2.05.59-10.94-13.42-12.37-15.93-3.39-5.96-7.54-14.52-8.74-21.23Z"/>
              </g>
              <g>
                <path class="cls-2" d="M99.83,200.88l97.7-107.52c5.76,6.76,22.12,31.57,18.97,39.65l-74.74,83.51c-5.89,3.68-41.79-12.99-41.93-15.64Z"/>
                <path class="cls-2" d="M99.83,200.88l97.7-107.52c5.76,6.76,22.12,31.57,18.97,39.65l-74.74,83.51c-5.89,3.68-41.79-12.99-41.93-15.64Z"/>
              </g>
            </g>
          </g>
          <path class="cls-1" d="M67.15,192.11c-1.42-4.88-.62-10.11,2.59-14.06l100.52-112.88c12.45-11.93,31.59,2.64,21.92,17.55l-101.96,114.56c-6.39,7.67-20.46,3.87-23.08-5.17Z"/>
        </g>
        <path d="M277.37,250.4c.38.35.41.95.06,1.33l-9.48,10.32c-.35.38-.95.41-1.33.06l-6.47-5.95c-9.98,7.3-21.36,7.78-32.03-1.32-.38-.35-.41-.95-.06-1.33l9.98-10.85c.35-.39.95-.41,1.4-.13,6.64,4.83,12.55,6.28,19.13-.88,5.1-5.54,5.78-10.46.7-15.13-12.16-11.18-29.16,28.16-51.33,7.78-8.47-7.79-9.79-18.09-3.2-28.51l-4.77-4.39c-.38-.35-.41-.95-.06-1.33l9.48-10.32c.35-.38.95-.41,1.33-.06l4.93,4.53c8.76-6.44,18.58-7.07,29.02.11.38.35.48.87.13,1.25l-10.05,10.93c-.35.38-.94.41-1.4.13-5.35-3.92-10.8-3.4-15.61,1.84-3.89,4.23-4.73,9.01-.26,13.11,11.47,10.55,28.92-28.67,51.01-8.36,9.85,9.06,10.4,20.36,2.81,31.56l6.08,5.59Z"/>
      </g>
    </g>
  </g>
</svg>